<svg xmlns="http://www.w3.org/2000/svg" width="600" height="600" viewBox="0 0 600 600">
  <defs>
    <pattern id="p" width="120" height="120" patternUnits="userSpaceOnUse">
      <path d="M60 6 L78 24 L114 24 L90 42 L96 72 L60 56 L24 72 L30 42 L6 24 L42 24 Z" fill="none" stroke="#D4AF37" stroke-opacity="0.18" stroke-width="2"/>
      <circle cx="60" cy="60" r="22" fill="none" stroke="#004225" stroke-opacity="0.22" stroke-width="3"/>
      <path d="M60 18 C78 36 84 48 84 60 C84 72 78 84 60 102 C42 84 36 72 36 60 C36 48 42 36 60 18 Z" fill="none" stroke="#F5F5DC" stroke-opacity="0.08" stroke-width="2"/>
    </pattern>
    <radialGradient id="fade" cx="50%" cy="50%" r="65%">
      <stop offset="0" stop-color="#ffffff" stop-opacity="0.10"/>
      <stop offset="1" stop-color="#000000" stop-opacity="0"/>
    </radialGradient>
  </defs>

  <rect width="600" height="600" fill="url(#p)"/>
  <rect width="600" height="600" fill="url(#fade)"/>
</svg>
